<svg width="120" height="25" viewBox="0 0 120 25" fill="none" xmlns="http://www.w3.org/2000/svg">
<path d="M2.82812 24.5C2.8125 24.5 2.78906 24.5 2.75781 24.5C2.72656 24.5 2.70312 24.5 2.6875 24.5C2.21875 24.5 1.8125 24.3359 1.46875 24.0078C1.14062 23.6797 0.976562 23.2734 0.976562 22.7891C0.976562 22.6797 0.984375 22.5703 1 22.4609C1.03125 22.3516 1.07031 22.25 1.11719 22.1562H1.09375L4.84375 10.0625C5.07812 9.40625 5.47656 8.85938 6.03906 8.42188C6.61719 7.98438 7.27344 7.75 8.00781 7.71875H24.7188C25.4531 7.6875 26.1016 7.46094 26.6641 7.03906C27.2266 6.60156 27.6328 6.0625 27.8828 5.42188V5.39844L28.6562 2.84375C28.9062 2.17188 29.3125 1.625 29.875 1.20312C30.4531 0.765625 31.1016 0.53125 31.8203 0.5H38.9219C38.9531 0.5 38.9766 0.5 38.9922 0.5C39.0234 0.5 39.0469 0.5 39.0625 0.5C39.5312 0.5 39.9297 0.664062 40.2578 0.992188C40.6016 1.32031 40.7734 1.71875 40.7734 2.1875C40.7734 2.3125 40.7578 2.42969 40.7266 2.53906C40.7109 2.64844 40.6797 2.75 40.6328 2.84375H40.6562L34.6797 22.1562C34.4453 22.8281 34.0391 23.375 33.4609 23.7969C32.8984 24.2344 32.25 24.4688 31.5156 24.5H2.82812ZM24.9531 14.8438C25 14.75 25.0312 14.6484 25.0469 14.5391C25.0781 14.4297 25.0938 14.3203 25.0938 14.2109C25.0938 13.7422 24.9219 13.3438 24.5781 13.0156C24.25 12.6719 23.8516 12.5 23.3828 12.5C23.3516 12.5 23.3203 12.5078 23.2891 12.5234C23.2734 12.5234 23.25 12.5234 23.2188 12.5234H23.2422H16.1172C15.3828 12.5547 14.7266 12.7891 14.1484 13.2266C13.5859 13.6484 13.1875 14.1797 12.9531 14.8203L12.9297 14.8438L12.1562 17.375C12.125 17.4688 12.0938 17.5703 12.0625 17.6797C12.0469 17.7891 12.0391 17.8984 12.0391 18.0078C12.0391 18.4766 12.2031 18.8828 12.5312 19.2266C12.875 19.5547 13.2812 19.7188 13.75 19.7188C13.7812 19.7188 13.8047 19.7188 13.8203 19.7188C13.8516 19.7188 13.875 19.7188 13.8906 19.7188H21.0156C21.75 19.6719 22.3984 19.4375 22.9609 19.0156C23.5234 18.5938 23.9297 18.0547 24.1797 17.3984V17.375L24.9531 14.8438ZM67.6094 24.5C67.5938 24.5 67.5703 24.5 67.5391 24.5C67.5078 24.5 67.4844 24.5 67.4688 24.5C67 24.5 66.5938 24.3359 66.25 24.0078C65.9219 23.6797 65.7578 23.2734 65.7578 22.7891C65.7578 22.6797 65.7656 22.5703 65.7812 22.4609C65.8125 22.3516 65.8516 22.25 65.8984 22.1562H65.875L68.1484 14.8438C68.1797 14.75 68.2031 14.6562 68.2188 14.5625C68.25 14.4531 68.2656 14.3359 68.2656 14.2109C68.2656 13.7422 68.0938 13.3438 67.75 13.0156C67.4219 12.6719 67.0234 12.5 66.5547 12.5C66.5391 12.5 66.5156 12.5078 66.4844 12.5234C66.4531 12.5234 66.4297 12.5234 66.4141 12.5234H59.2891C58.5547 12.5547 57.9062 12.7891 57.3438 13.2266C56.7812 13.6484 56.3828 14.1797 56.1484 14.8203L56.125 14.8438L53.875 22.1562C53.625 22.8281 53.2109 23.375 52.6328 23.7969C52.0703 24.2344 51.4297 24.4688 50.7109 24.5H43.6094C43.5938 24.5 43.5703 24.5 43.5391 24.5C43.5234 24.5 43.5 24.5 43.4688 24.5C43 24.5 42.5938 24.3359 42.25 24.0078C41.9219 23.6797 41.7578 23.2812 41.7578 22.8125C41.7578 22.6875 41.7656 22.5703 41.7812 22.4609C41.8125 22.3516 41.8516 22.25 41.8984 22.1562L47.8516 2.84375C48.1016 2.17188 48.5078 1.625 49.0703 1.20312C49.6484 0.765625 50.2969 0.53125 51.0156 0.5H58.1172C58.1328 0.5 58.1562 0.5 58.1875 0.5C58.2188 0.5 58.2422 0.5 58.2578 0.5C58.7266 0.5 59.125 0.664062 59.4531 0.992188C59.7969 1.32031 59.9688 1.71875 59.9688 2.1875C59.9688 2.3125 59.9531 2.42969 59.9219 2.53906C59.9062 2.64844 59.875 2.75 59.8281 2.84375L59.0547 5.35156C59.0234 5.44531 58.9922 5.54688 58.9609 5.65625C58.9453 5.76562 58.9375 5.875 58.9375 5.98438C58.9375 6.46875 59.1016 6.875 59.4297 7.20312C59.7734 7.53125 60.1797 7.69531 60.6484 7.69531C60.6641 7.69531 60.6875 7.69531 60.7188 7.69531C60.75 7.69531 60.7734 7.69531 60.7891 7.69531L77.4766 7.71875C77.5078 7.71875 77.5312 7.71875 77.5469 7.71875C77.5781 7.71875 77.6016 7.71875 77.6172 7.71875C78.0859 7.71875 78.4844 7.89063 78.8125 8.23438C79.1562 8.5625 79.3281 8.96094 79.3281 9.42969C79.3281 9.53906 79.3125 9.64844 79.2812 9.75781C79.2656 9.86719 79.2422 9.97656 79.2109 10.0859V10.0625L75.4609 22.1562C75.2266 22.8281 74.8203 23.375 74.2422 23.7969C73.6797 24.2344 73.0391 24.4688 72.3203 24.5H72.2969H67.6094ZM84.1328 24.5C84.1016 24.5 84.0703 24.5 84.0391 24.5C84.0234 24.5 84.0078 24.5 83.9922 24.5C83.5078 24.5 83.1016 24.3359 82.7734 24.0078C82.4453 23.6797 82.2812 23.2734 82.2812 22.7891C82.2812 22.6797 82.2891 22.5703 82.3047 22.4609C82.3359 22.3516 82.3672 22.25 82.3984 22.1562L86.1484 10.0391C86.3828 9.36719 86.7812 8.82031 87.3438 8.39844C87.9219 7.96094 88.5781 7.72656 89.3125 7.69531H96.4141C96.4297 7.69531 96.4453 7.69531 96.4609 7.69531C96.4922 7.69531 96.5234 7.69531 96.5547 7.69531C97.0234 7.69531 97.4219 7.85938 97.75 8.1875C98.0938 8.51562 98.2656 8.91406 98.2656 9.38281C98.2656 9.50781 98.25 9.625 98.2188 9.73438C98.2031 9.84375 98.1719 9.94531 98.125 10.0391L95.875 17.375C95.8281 17.4688 95.7891 17.5703 95.7578 17.6797C95.7422 17.7891 95.7344 17.8984 95.7344 18.0078C95.7344 18.4766 95.8984 18.875 96.2266 19.2031C96.5703 19.5312 96.9766 19.6953 97.4453 19.6953C97.4609 19.6953 97.4844 19.6953 97.5156 19.6953C97.5469 19.6953 97.5703 19.6953 97.5859 19.6953H104.711C105.445 19.6641 106.094 19.4375 106.656 19.0156C107.234 18.5781 107.641 18.0391 107.875 17.3984V17.375L110.148 10.0391C110.383 9.36719 110.781 8.82031 111.344 8.39844C111.922 7.96094 112.578 7.72656 113.312 7.69531H118C118.016 7.69531 118.039 7.69531 118.07 7.69531C118.102 7.67969 118.125 7.67188 118.141 7.67188C118.609 7.67188 119.008 7.84375 119.336 8.1875C119.68 8.51562 119.852 8.91406 119.852 9.38281C119.852 9.50781 119.836 9.625 119.805 9.73438C119.789 9.84375 119.766 9.94531 119.734 10.0391L115.984 22.1562C115.734 22.8281 115.328 23.375 114.766 23.7969C114.203 24.2344 113.555 24.4688 112.82 24.5H84.1328Z" fill="white"/>
</svg>
